<svg width="41" height="41" viewBox="0 0 41 41" fill="none" xmlns="http://www.w3.org/2000/svg">
<rect x="0.833252" y="1" width="39" height="39" rx="11.5" fill="white"/>
<rect x="0.833252" y="1" width="39" height="39" rx="11.5" stroke="#B3B3B3"/>
<path d="M20.3333 9.5C20.8856 9.5 21.3333 9.94772 21.3333 10.5V12.5C21.3333 13.0523 20.8856 13.5 20.3333 13.5C19.781 13.5 19.3333 13.0523 19.3333 12.5V10.5C19.3333 9.94772 19.781 9.5 20.3333 9.5Z" fill="#1A1A1A"/>
<path d="M20.3333 27.5C20.8856 27.5 21.3333 27.9477 21.3333 28.5V30.5C21.3333 31.0523 20.8856 31.5 20.3333 31.5C19.781 31.5 19.3333 31.0523 19.3333 30.5V28.5C19.3333 27.9477 19.781 27.5 20.3333 27.5Z" fill="#1A1A1A"/>
<path d="M9.33325 20.5C9.33325 19.9477 9.78097 19.5 10.3333 19.5H12.3333C12.8855 19.5 13.3333 19.9477 13.3333 20.5C13.3333 21.0523 12.8855 21.5 12.3333 21.5H10.3333C9.78097 21.5 9.33325 21.0523 9.33325 20.5Z" fill="#1A1A1A"/>
<path d="M27.3333 20.5C27.3333 19.9477 27.781 19.5 28.3333 19.5H30.3333C30.8856 19.5 31.3333 19.9477 31.3333 20.5C31.3333 21.0523 30.8856 21.5 30.3333 21.5H28.3333C27.781 21.5 27.3333 21.0523 27.3333 20.5Z" fill="#1A1A1A"/>
<path d="M15.3803 25.4529C15.7708 25.8435 15.7708 26.4766 15.3803 26.8671L13.9703 28.2771C13.5798 28.6677 12.9466 28.6677 12.5561 28.2771C12.1656 27.8866 12.1656 27.2535 12.5561 26.8629L13.9661 25.4529C14.3566 25.0624 14.9898 25.0624 15.3803 25.4529Z" fill="#1A1A1A"/>
<path d="M28.1104 12.723C28.501 13.1135 28.501 13.7466 28.1104 14.1372L26.7004 15.5472C26.3099 15.9377 25.6768 15.9377 25.2862 15.5472C24.8957 15.1566 24.8957 14.5235 25.2862 14.133L26.6962 12.723C27.0868 12.3324 27.7199 12.3324 28.1104 12.723Z" fill="#1A1A1A"/>
<path d="M25.2862 25.4529C25.6768 25.0624 26.3099 25.0624 26.7004 25.4529L28.1104 26.8629C28.501 27.2535 28.501 27.8866 28.1104 28.2771C27.7199 28.6677 27.0868 28.6677 26.6962 28.2771L25.2862 26.8671C24.8957 26.4766 24.8957 25.8435 25.2862 25.4529Z" fill="#1A1A1A"/>
<path d="M12.5561 12.723C12.9466 12.3324 13.5798 12.3324 13.9703 12.723L15.3803 14.133C15.7708 14.5235 15.7708 15.1566 15.3803 15.5472C14.9898 15.9377 14.3566 15.9377 13.9661 15.5472L12.5561 14.1372C12.1656 13.7466 12.1656 13.1135 12.5561 12.723Z" fill="#1A1A1A"/>
<path d="M20.3333 15.5C17.5718 15.5 15.3333 17.7386 15.3333 20.5C15.3333 23.2614 17.5718 25.5 20.3333 25.5C23.0947 25.5 25.3333 23.2614 25.3333 20.5C25.3333 17.7386 23.0947 15.5 20.3333 15.5Z" fill="#1A1A1A"/>
</svg>
