<svg width="41" height="41" viewBox="0 0 41 41" fill="none" xmlns="http://www.w3.org/2000/svg">
<rect x="1.16669" y="1" width="39" height="39" rx="11.5" fill="white"/>
<rect x="1.16669" y="1" width="39" height="39" rx="11.5" stroke="#B3B3B3"/>
<path d="M24.8889 12C24.0696 12 23.2615 12.192 22.5286 12.5609C21.7958 12.9297 21.1583 13.4652 20.6667 14.125C20.0021 13.233 19.0755 12.5741 18.0181 12.2417C16.9608 11.9092 15.8264 11.92 14.7755 12.2726C13.7246 12.6252 12.8106 13.3017 12.1629 14.2062C11.5152 15.1107 11.1667 16.1975 11.1667 17.3125C11.1667 23.6786 19.9542 28.6989 20.3236 28.9114C20.4283 28.9706 20.5466 29.0011 20.6667 28.9999C20.7869 29.002 20.9054 28.9714 21.0098 28.9114C22.628 27.9591 24.1458 26.8436 25.5398 25.5822C28.6098 22.802 30.1667 20.0218 30.1667 17.3125C30.1667 15.9035 29.6107 14.5523 28.6209 13.556C27.6311 12.5597 26.2887 12 24.8889 12Z" fill="#1A1A1A"/>
</svg>
