<svg width="41" height="41" viewBox="0 0 41 41" fill="none" xmlns="http://www.w3.org/2000/svg">
<rect x="0.833252" y="1" width="39" height="39" rx="11.5" fill="white"/>
<rect x="0.833252" y="1" width="39" height="39" rx="11.5" stroke="#B3B3B3"/>
<path fill-rule="evenodd" clip-rule="evenodd" d="M15.3333 16.5C15.3333 13.7377 17.571 11.5 20.3333 11.5C23.0956 11.5 25.3333 13.7377 25.3333 16.5V17.5H27.3333C28.8333 17.5 29.3333 18.22 29.3333 19.1V28.6C29.3333 29.7046 28.4379 30.6 27.3333 30.6H13.3333C12.2287 30.6 11.3333 29.7046 11.3333 28.6V19.1C11.3333 18.22 11.8333 17.5 13.1833 17.5H15.3333V16.5ZM23.3333 16.5V17.5H17.3333V16.5C17.3333 14.8423 18.6756 13.5 20.3333 13.5C21.991 13.5 23.3333 14.8423 23.3333 16.5ZM20.3333 20.5C19.2287 20.5 18.2773 21.3968 18.3333 22.5C18.3703 23.2298 18.7421 23.8007 19.3333 24.0816V25.5C19.3333 25.9142 19.5105 27 20.3333 27C21.1561 27 21.3333 25.9142 21.3333 25.5V24.0816C21.9245 23.8007 22.2963 23.2298 22.3333 22.5C22.3893 21.3968 21.4379 20.5 20.3333 20.5Z" fill="#1A1A1A"/>
</svg>
