<svg width="41" height="41" viewBox="0 0 41 41" fill="none" xmlns="http://www.w3.org/2000/svg">
<rect x="1.16669" y="1" width="39" height="39" rx="11.5" fill="white"/>
<rect x="1.16669" y="1" width="39" height="39" rx="11.5" stroke="#B3B3B3"/>
<path d="M27.6498 20.2253C27.6262 20.1232 27.5775 20.0285 27.5081 19.9498C27.4387 19.871 27.3508 19.8107 27.2522 19.774L22.671 19.0642L23.8322 12.2619C23.8589 12.1275 23.8416 11.9881 23.7829 11.8642C23.7243 11.7403 23.6272 11.6383 23.5061 11.5732C23.3837 11.5085 23.2433 11.4858 23.1067 11.5087C22.97 11.5316 22.8448 11.5988 22.7505 11.6999L13.8426 21.1989C13.7696 21.2743 13.7168 21.3667 13.689 21.4676C13.6612 21.5686 13.6593 21.6749 13.6835 21.7768C13.7084 21.8783 13.7576 21.9723 13.8268 22.0508C13.8961 22.1294 13.9833 22.1902 14.0812 22.228L18.6624 22.9378L17.5012 29.7401C17.4745 29.8745 17.4918 30.0139 17.5504 30.1378C17.6091 30.2617 17.7061 30.3637 17.8273 30.4288C17.9186 30.4746 18.0193 30.499 18.1216 30.5C18.208 30.5004 18.2936 30.483 18.373 30.4489C18.4523 30.4149 18.5238 30.3649 18.5829 30.3021L27.4908 20.8031C27.5638 20.7277 27.6166 20.6353 27.6444 20.5344C27.6722 20.4334 27.674 20.3271 27.6498 20.2253Z" fill="#1A1A1A"/>
</svg>
