<svg width="40" height="41" viewBox="0 0 40 41" fill="none" xmlns="http://www.w3.org/2000/svg">
<rect x="0.500061" y="1" width="39" height="39" rx="11.5" fill="white"/>
<rect x="0.500061" y="1" width="39" height="39" rx="11.5" stroke="#B3B3B3"/>
<g clip-path="url(#clip0_1_875)">
<mask id="mask0_1_875" style="mask-type:luminance" maskUnits="userSpaceOnUse" x="8" y="8" width="24" height="25">
<path d="M32.0001 8.5H8.00006V32.5H32.0001V8.5Z" fill="white"/>
</mask>
<g mask="url(#mask0_1_875)">
<path d="M25.9103 11.0525C25.9103 10.8025 25.7403 10.5845 25.498 10.5239L25.1997 10.4492C24.9008 10.3744 24.6279 10.2197 24.4101 10.0017C24.1922 9.78364 24.0377 9.51044 23.963 9.21129L23.8884 8.91295C23.8278 8.67026 23.61 8.5 23.3601 8.5C23.1104 8.5 22.8927 8.66995 22.8319 8.91236L22.7568 9.21129C22.6822 9.51033 22.5278 9.78346 22.3101 10.0015C22.0924 10.2195 21.8197 10.3743 21.521 10.4492L21.2227 10.5239C20.9804 10.5845 20.8104 10.8025 20.8104 11.0525C20.8104 11.3025 20.9804 11.5204 21.2227 11.5811L21.521 11.6557C21.8198 11.7305 22.0928 11.8852 22.3106 12.1033C22.5284 12.3213 22.683 12.5945 22.7577 12.8937L22.8323 13.1922C22.8928 13.4348 23.1106 13.6049 23.3603 13.6049C23.6101 13.6049 23.8278 13.4348 23.8884 13.1922L23.963 12.8937C24.0377 12.5945 24.1922 12.3213 24.4101 12.1033C24.6279 11.8852 24.9008 11.7305 25.1997 11.6557L25.498 11.5811C25.7403 11.5204 25.9103 11.3025 25.9103 11.0525Z" fill="#1A1A1A"/>
<path d="M32.0001 16C32.0001 15.6572 31.7668 15.3583 31.4342 15.2752L31.0248 15.1728C30.6146 15.0703 30.24 14.8581 29.941 14.5591C29.642 14.2602 29.4299 13.8855 29.3273 13.4753L29.2249 13.0659C29.1418 12.7333 28.8429 12.5 28.5001 12.5C28.1573 12.5 27.8585 12.7333 27.7753 13.0659L27.6729 13.4753C27.5704 13.8855 27.3582 14.2602 27.0592 14.5591C26.7603 14.8581 26.3856 15.0703 25.9754 15.1728L25.566 15.2752C25.2334 15.3583 25.0001 15.6572 25.0001 16C25.0001 16.3428 25.2334 16.6417 25.566 16.7248L25.9754 16.8272C26.3856 16.9298 26.7603 17.1419 27.0592 17.4409C27.3582 17.7399 27.5704 18.1145 27.6729 18.5247L27.7753 18.9341C27.8585 19.2667 28.1573 19.5 28.5001 19.5C28.8429 19.5 29.1418 19.2667 29.2249 18.9341L29.3273 18.5247C29.4299 18.1145 29.642 17.7399 29.941 17.4409C30.24 17.1419 30.6146 16.9298 31.0248 16.8272L31.4342 16.7248C31.7668 16.6417 32.0001 16.3428 32.0001 16Z" fill="#1A1A1A"/>
<path d="M17.7135 13.0138C17.9839 12.3287 19.0171 12.3287 19.2874 13.0138L21.2372 18.1693C21.3221 18.3847 21.5032 19.1172 21.7329 19.1969L26.4522 21.2758C27.1827 21.5293 27.1827 22.4982 26.4522 22.7517L21.7329 24.3346C21.5032 24.4143 21.3221 25.1468 21.2372 25.3622L19.2874 29.9862C19.0171 30.6713 17.9839 30.6713 17.7135 29.9862L15.7638 25.3622C15.6788 25.1468 15.4977 24.4143 15.2681 24.3346L10.5479 22.7517C9.81743 22.4982 9.81743 21.5293 10.5479 21.2758L15.2681 19.1969C15.4977 19.1172 15.6788 18.3847 15.7638 18.1693L17.7135 13.0138Z" fill="#1A1A1A"/>
</g>
</g>
<defs>
<clipPath id="clip0_1_875">
<rect width="24" height="24" fill="white" transform="translate(8.00006 8.5)"/>
</clipPath>
</defs>
</svg>
